<svg width="80" height="81" viewBox="0 0 80 81" fill="none" xmlns="http://www.w3.org/2000/svg">
<path d="M79.5 40.1402C79.5 62.0035 61.8142 79.7254 40 79.7254C18.1858 79.7254 0.5 62.0035 0.5 40.1402C0.5 18.2768 18.1858 0.554932 40 0.554932C61.8142 0.554932 79.5 18.2768 79.5 40.1402Z" stroke="#49BBBD"/>
<path d="M52.7071 40.8472C53.0976 40.4567 53.0976 39.8236 52.7071 39.433L46.3431 33.0691C45.9526 32.6785 45.3195 32.6785 44.9289 33.0691C44.5384 33.4596 44.5384 34.0928 44.9289 34.4833L50.5858 40.1401L44.9289 45.797C44.5384 46.1875 44.5384 46.8207 44.9289 47.2112C45.3195 47.6017 45.9526 47.6017 46.3431 47.2112L52.7071 40.8472ZM27 41.1401L52 41.1401L52 39.1401L27 39.1401L27 41.1401Z" fill="#49BBBD"/>
</svg>
