<svg width="40" height="40" viewBox="0 0 40 40" fill="none" xmlns="http://www.w3.org/2000/svg">
<circle cx="20" cy="20" r="20" fill="#5B5B5B"/>
<g clip-path="url(#clip0_817_1139)">
<mask id="mask0_817_1139" style="mask-type:alpha" maskUnits="userSpaceOnUse" x="-1729" y="-57" width="1912" height="1118">
<path d="M-1729 -57H183V933C183 933 -117.742 1061 -773 1061C-1428.26 1061 -1729 933 -1729 933V-57Z" fill="white"/>
</mask>
<g mask="url(#mask0_817_1139)">
<path fill-rule="evenodd" clip-rule="evenodd" d="M20.1429 8C18.7031 8 17.3223 8.57194 16.3043 9.58999C15.2862 10.608 14.7143 11.9888 14.7143 13.4286C14.7143 14.8683 15.2862 16.2491 16.3043 17.2672C17.3223 18.2852 18.7031 18.8571 20.1429 18.8571C21.5826 18.8571 22.9634 18.2852 23.9814 17.2672C24.9995 16.2491 25.5714 14.8683 25.5714 13.4286C25.5714 11.9888 24.9995 10.608 23.9814 9.58999C22.9634 8.57194 21.5826 8 20.1429 8ZM17.4286 20.2143C15.9888 20.2143 14.608 20.7862 13.59 21.8043C12.5719 22.8223 12 24.2031 12 25.6429V27C12 27.7199 12.286 28.4103 12.795 28.9193C13.304 29.4283 13.9944 29.7143 14.7143 29.7143H25.5714C26.2913 29.7143 26.9817 29.4283 27.4907 28.9193C27.9997 28.4103 28.2857 27.7199 28.2857 27V25.6429C28.2857 24.2031 27.7138 22.8223 26.6957 21.8043C25.6777 20.7862 24.2969 20.2143 22.8571 20.2143H17.4286Z" fill="white"/>
</g>
</g>
<defs>
<clipPath id="clip0_817_1139">
<rect width="38" height="38" fill="white" transform="translate(1)"/>
</clipPath>
</defs>
</svg>
