<svg width="180" height="181" viewBox="0 0 180 181" fill="none" xmlns="http://www.w3.org/2000/svg">
<g filter="url(#filter0_d_817_1063)">
<ellipse cx="90" cy="80.6905" rx="50" ry="50.1066" fill="#5B72EE"/>
</g>
<path d="M107.438 69.375H72.5625C71.0214 69.3765 69.5439 69.9894 68.4541 71.0791C67.3644 72.1689 66.7515 73.6464 66.75 75.1875V86.8125C66.75 87.8402 67.1583 88.8258 67.885 89.5525C68.6117 90.2792 69.5973 90.6875 70.625 90.6875V104.25C70.625 105.278 71.0333 106.263 71.76 106.99C72.4867 107.717 73.4723 108.125 74.5 108.125H82.25C83.2777 108.125 84.2633 107.717 84.99 106.99C85.7167 106.263 86.125 105.278 86.125 104.25V81H82.25V104.25H74.5V86.8125H70.625V75.1875C70.625 74.6736 70.8291 74.1808 71.1925 73.8175C71.5558 73.4541 72.0486 73.25 72.5625 73.25H107.438C107.951 73.25 108.444 73.4541 108.808 73.8175C109.171 74.1808 109.375 74.6736 109.375 75.1875V86.8125H105.5V104.25H97.75V81H93.875V104.25C93.875 105.278 94.2833 106.263 95.01 106.99C95.7367 107.717 96.7223 108.125 97.75 108.125H105.5C106.528 108.125 107.513 107.717 108.24 106.99C108.967 106.263 109.375 105.278 109.375 104.25V90.6875C110.403 90.6875 111.388 90.2792 112.115 89.5525C112.842 88.8258 113.25 87.8402 113.25 86.8125V75.1875C113.248 73.6464 112.636 72.1689 111.546 71.0791C110.456 69.9894 108.979 69.3765 107.438 69.375ZM78.375 67.4375C76.8422 67.4375 75.3438 66.983 74.0693 66.1314C72.7948 65.2798 71.8015 64.0694 71.2149 62.6533C70.6284 61.2372 70.4749 59.6789 70.7739 58.1756C71.0729 56.6722 71.8111 55.2913 72.8949 54.2074C73.9788 53.1236 75.3597 52.3855 76.8631 52.0864C78.3664 51.7874 79.9247 51.9409 81.3408 52.5274C82.7569 53.114 83.9673 54.1074 84.8189 55.3818C85.6705 56.6563 86.125 58.1547 86.125 59.6875C86.1229 61.7423 85.3058 63.7124 83.8528 65.1653C82.3998 66.6183 80.4298 67.4355 78.375 67.4375ZM78.375 55.8125C77.6086 55.8125 76.8594 56.0398 76.2222 56.4656C75.5849 56.8913 75.0883 57.4965 74.795 58.2046C74.5017 58.9127 74.4249 59.6918 74.5745 60.4435C74.724 61.1952 75.093 61.8856 75.635 62.4275C76.1769 62.9695 76.8673 63.3385 77.619 63.488C78.3707 63.6376 79.1498 63.5608 79.8579 63.2675C80.566 62.9742 81.1712 62.4776 81.5969 61.8403C82.0227 61.2031 82.25 60.4539 82.25 59.6875C82.25 58.6598 81.8417 57.6742 81.115 56.9475C80.3883 56.2208 79.4027 55.8125 78.375 55.8125ZM101.625 67.4375C100.092 67.4375 98.5938 66.983 97.3193 66.1314C96.0449 65.2798 95.0515 64.0694 94.4649 62.6533C93.8784 61.2372 93.7249 59.6789 94.0239 58.1756C94.3229 56.6722 95.0611 55.2913 96.1449 54.2074C97.2288 53.1236 98.6097 52.3855 100.113 52.0864C101.616 51.7874 103.175 51.9409 104.591 52.5274C106.007 53.114 107.217 54.1074 108.069 55.3818C108.92 56.6563 109.375 58.1547 109.375 59.6875C109.373 61.7423 108.556 63.7124 107.103 65.1653C105.65 66.6183 103.68 67.4355 101.625 67.4375ZM101.625 55.8125C100.859 55.8125 100.109 56.0398 99.4722 56.4656C98.8349 56.8913 98.3383 57.4965 98.045 58.2046C97.7517 58.9127 97.6749 59.6918 97.8245 60.4435C97.974 61.1952 98.343 61.8856 98.885 62.4275C99.4269 62.9695 100.117 63.3385 100.869 63.488C101.621 63.6376 102.4 63.5608 103.108 63.2675C103.816 62.9742 104.421 62.4776 104.847 61.8403C105.273 61.2031 105.5 60.4539 105.5 59.6875C105.5 58.6598 105.092 57.6742 104.365 56.9475C103.638 56.2208 102.653 55.8125 101.625 55.8125Z" fill="#F8F8F8"/>
<defs>
<filter id="filter0_d_817_1063" x="0" y="0.583923" width="180" height="180.213" filterUnits="userSpaceOnUse" color-interpolation-filters="sRGB">
<feFlood flood-opacity="0" result="BackgroundImageFix"/>
<feColorMatrix in="SourceAlpha" type="matrix" values="0 0 0 0 0 0 0 0 0 0 0 0 0 0 0 0 0 0 127 0" result="hardAlpha"/>
<feOffset dy="10"/>
<feGaussianBlur stdDeviation="20"/>
<feColorMatrix type="matrix" values="0 0 0 0 0.212 0 0 0 0 0.238778 0 0 0 0 0.533333 0 0 0 0.06 0"/>
<feBlend mode="normal" in2="BackgroundImageFix" result="effect1_dropShadow_817_1063"/>
<feBlend mode="normal" in="SourceGraphic" in2="effect1_dropShadow_817_1063" result="shape"/>
</filter>
</defs>
</svg>
