<svg width="180" height="181" viewBox="0 0 180 181" fill="none" xmlns="http://www.w3.org/2000/svg">
<g filter="url(#filter0_d_817_1053)">
<ellipse cx="90" cy="74.6905" rx="50" ry="50.1066" fill="#00CBB8"/>
</g>
<path d="M92.8326 46.6667C94.9315 46.6632 96.9574 47.4365 98.5202 48.8375C100.083 50.2385 101.072 52.1681 101.297 54.2549C101.523 56.3416 100.968 58.4379 99.7397 60.14C98.5116 61.8421 96.6972 63.0297 94.6459 63.474L94.1614 63.5647L98.2301 70.0728L103.115 68.1178C103.787 67.8466 104.537 67.8431 105.211 68.108C105.886 68.3729 106.433 68.886 106.741 69.542C107.048 70.198 107.093 70.9469 106.865 71.6348C106.638 72.3227 106.156 72.8973 105.517 73.2405L105.217 73.3822L100.335 75.3343C99.178 75.7973 97.9005 75.8659 96.7003 75.5293C95.5002 75.1928 94.4445 74.47 93.6968 73.4728L93.4248 73.0762L92.9629 72.3395L91.2459 79.2075C91.0974 79.8051 90.8524 80.3745 90.5206 80.8933L90.2656 81.2617L94.9491 84.741C96.0662 85.5712 96.8388 86.7834 97.1194 88.1467L97.2016 88.6623L98.2018 97.6667H98.4993C99.2214 97.6675 99.916 97.944 100.441 98.4397C100.966 98.9355 101.282 99.613 101.325 100.334C101.367 101.055 101.132 101.765 100.669 102.319C100.205 102.872 99.5479 103.228 98.8308 103.313L98.4993 103.333H95.9209C95.2119 103.334 94.5239 103.092 93.9707 102.648C93.4175 102.205 93.032 101.586 92.8779 100.894L92.8213 100.562L91.5689 89.2885L82.6439 82.6585C82.4851 82.5418 82.3389 82.4089 82.2076 82.2618C81.4203 81.6318 80.8155 80.8031 80.4554 79.8613C80.0953 78.9194 79.993 77.8986 80.1591 76.904L80.2526 76.4592L82.5023 67.4577L78.0539 68.7893L75.6881 75.8953C75.4609 76.5829 74.979 77.1573 74.3415 77.5007C73.704 77.8441 72.9592 77.9304 72.2601 77.7418C71.5609 77.5533 70.9605 77.1042 70.5821 76.4868C70.2038 75.8694 70.0761 75.1306 70.2254 74.422L70.3104 74.1047L72.6791 66.9987C72.9422 66.2102 73.3756 65.4893 73.9485 64.887C74.5214 64.2847 75.2198 63.8159 75.9941 63.5137L76.4276 63.3635L86.1658 60.4423C85.1742 59.1897 84.5557 57.683 84.3812 56.095C84.2068 54.5069 84.4834 52.9019 85.1793 51.4639C85.8753 50.0258 86.9624 48.813 88.316 47.9646C89.6697 47.1161 91.235 46.6663 92.8326 46.6667ZM83.1993 84.0667C83.8004 84.5175 84.1979 85.1887 84.3041 85.9326C84.4104 86.6765 84.2168 87.4322 83.7659 88.0333L80.3206 92.629C79.6688 93.498 78.7089 94.0844 77.6382 94.2678C76.5674 94.4512 75.4671 94.2176 74.5633 93.615L69.0949 89.9685C68.5289 90.4227 67.8102 90.6424 67.087 90.5823C66.3637 90.5222 65.6911 90.1869 65.2079 89.6455C64.7246 89.1041 64.4675 88.3979 64.4896 87.6725C64.5117 86.9471 64.8113 86.2578 65.3266 85.7468L66.7291 84.3472C67.1967 83.8786 67.8123 83.5867 68.471 83.5211C69.1297 83.4555 69.7908 83.6202 70.3416 83.9873L76.5919 88.1552L79.2326 84.6333C79.4559 84.3357 79.7355 84.0849 80.0557 83.8953C80.3759 83.7057 80.7302 83.5811 81.0986 83.5285C81.4669 83.4759 81.842 83.4963 82.2024 83.5886C82.5629 83.681 82.9016 83.8434 83.1993 84.0667Z" fill="#F8F8F8"/>
<defs>
<filter id="filter0_d_817_1053" x="0" y="0.583923" width="180" height="180.213" filterUnits="userSpaceOnUse" color-interpolation-filters="sRGB">
<feFlood flood-opacity="0" result="BackgroundImageFix"/>
<feColorMatrix in="SourceAlpha" type="matrix" values="0 0 0 0 0 0 0 0 0 0 0 0 0 0 0 0 0 0 127 0" result="hardAlpha"/>
<feOffset dy="16"/>
<feGaussianBlur stdDeviation="20"/>
<feColorMatrix type="matrix" values="0 0 0 0 0.146118 0 0 0 0 0.172389 0 0 0 0 0.441667 0 0 0 0.1 0"/>
<feBlend mode="normal" in2="BackgroundImageFix" result="effect1_dropShadow_817_1053"/>
<feBlend mode="normal" in="SourceGraphic" in2="effect1_dropShadow_817_1053" result="shape"/>
</filter>
</defs>
</svg>
