<svg width="180" height="181" viewBox="0 0 180 181" fill="none" xmlns="http://www.w3.org/2000/svg">
<g filter="url(#filter0_d_817_1059)">
<ellipse cx="90" cy="80.6905" rx="50" ry="50.1066" fill="#29B9E7"/>
</g>
<path d="M71.25 77.9346C74.2836 77.9346 76.75 75.463 76.75 72.4229C76.75 69.3828 74.2836 66.9112 71.25 66.9112C68.2164 66.9112 65.75 69.3828 65.75 72.4229C65.75 75.463 68.2164 77.9346 71.25 77.9346ZM109.75 77.9346C112.784 77.9346 115.25 75.463 115.25 72.4229C115.25 69.3828 112.784 66.9112 109.75 66.9112C106.716 66.9112 104.25 69.3828 104.25 72.4229C104.25 75.463 106.716 77.9346 109.75 77.9346ZM112.5 80.6905H107C105.487 80.6905 104.121 81.3019 103.124 82.2923C106.587 84.1956 109.045 87.6318 109.578 91.7139H115.25C116.771 91.7139 118 90.4824 118 88.9581V86.2022C118 83.1621 115.534 80.6905 112.5 80.6905ZM90.5 80.6905C95.8195 80.6905 100.125 76.3758 100.125 71.045C100.125 65.7141 95.8195 61.3995 90.5 61.3995C85.1805 61.3995 80.875 65.7141 80.875 71.045C80.875 76.3758 85.1805 80.6905 90.5 80.6905ZM97.1 83.4463H96.3867C94.5992 84.3076 92.6141 84.8243 90.5 84.8243C88.3859 84.8243 86.4094 84.3076 84.6133 83.4463H83.9C78.4344 83.4463 74 87.8902 74 93.3674V95.8477C74 98.1299 75.8477 99.9815 78.125 99.9815H102.875C105.152 99.9815 107 98.1299 107 95.8477V93.3674C107 87.8902 102.566 83.4463 97.1 83.4463ZM77.8758 82.2923C76.8789 81.3019 75.5125 80.6905 74 80.6905H68.5C65.4664 80.6905 63 83.1621 63 86.2022V88.9581C63 90.4824 64.2289 91.7139 65.75 91.7139H71.4133C71.9547 87.6318 74.4125 84.1956 77.8758 82.2923Z" fill="white"/>
<defs>
<filter id="filter0_d_817_1059" x="0" y="0.583923" width="180" height="180.213" filterUnits="userSpaceOnUse" color-interpolation-filters="sRGB">
<feFlood flood-opacity="0" result="BackgroundImageFix"/>
<feColorMatrix in="SourceAlpha" type="matrix" values="0 0 0 0 0 0 0 0 0 0 0 0 0 0 0 0 0 0 127 0" result="hardAlpha"/>
<feOffset dy="10"/>
<feGaussianBlur stdDeviation="20"/>
<feColorMatrix type="matrix" values="0 0 0 0 0.212 0 0 0 0 0.238778 0 0 0 0 0.533333 0 0 0 0.06 0"/>
<feBlend mode="normal" in2="BackgroundImageFix" result="effect1_dropShadow_817_1059"/>
<feBlend mode="normal" in="SourceGraphic" in2="effect1_dropShadow_817_1059" result="shape"/>
</filter>
</defs>
</svg>
