<svg width="50" height="57" viewBox="0 0 50 57" fill="none" xmlns="http://www.w3.org/2000/svg">
<path d="M18.125 21.8203C18.6607 21.2748 18.817 21.2525 22.1875 21.2525C25.2232 21.2525 25.3237 21.2637 25.7701 21.4863C26.4174 21.8092 26.6964 22.2656 26.6964 23.0004C26.6964 23.6572 26.4286 24.1137 25.8482 24.4922C25.5357 24.6926 25.346 24.7037 22.3772 24.726C20.5469 24.7371 19.0848 24.7037 18.8616 24.6369C17.7121 24.3141 17.2879 22.6664 18.125 21.8203ZM24.9777 32.3408C18.9621 32.3408 18.75 32.3631 18.2589 32.7973C17.8683 33.1424 17.6228 33.8437 17.6897 34.3447C17.7679 34.868 18.2254 35.4691 18.7165 35.6807C18.9621 35.792 20.2902 35.8699 25 35.8143L30.346 35.7475L31.3728 35.5805C32.3772 35.0127 32.5446 33.6434 31.7188 32.8641C31.1272 32.3408 31.1607 32.3408 24.9777 32.3408ZM49.9107 46.8246C49.5201 49.9863 47.3438 52.4355 44.2076 53.226C43.404 53.4264 43.125 53.4375 24.9107 53.4264C7.29911 53.4264 6.39509 53.4152 5.71429 53.226C4.77679 52.981 3.97321 52.6137 3.22545 52.1127C2.60045 51.6896 1.67411 50.799 1.32812 50.2869C0.904018 49.6635 0.412946 48.5836 0.212054 47.8377C0.0111607 47.0918 0 46.7912 0 28.5334C0 10.3758 0 9.98613 0.200893 9.1957C0.904018 6.44589 3.09152 4.34179 5.91518 3.71836C6.72991 3.54023 42.9799 3.50683 43.8616 3.68496C46.2277 4.16367 48.0915 5.58867 49.1741 7.7373C50.0335 9.44062 49.9554 7.57031 49.9888 27.8432C50.0112 40.735 49.9888 46.1566 49.9107 46.8246ZM40.3795 26.2066C40.2567 25.65 39.9107 25.1379 39.5201 24.9264C39.3973 24.8596 38.6272 24.7816 37.7902 24.7371C36.4062 24.6703 36.25 24.648 35.8036 24.392C35.1116 23.9912 34.9219 23.5459 34.9107 22.3547C34.9107 20.0836 33.9621 17.9684 32.0871 16.0646C30.7478 14.7064 29.2634 13.7824 27.5558 13.2703C27.154 13.1478 26.2388 13.1033 23.1808 13.0699C18.3929 13.0143 17.3214 13.1144 15.692 13.7602C12.6786 14.9514 10.5246 17.4785 9.73214 20.707C9.58705 21.3082 9.55357 22.2879 9.52009 27.8654C9.47545 34.8568 9.52009 35.8922 9.96652 37.2726C11.0491 40.6904 14.1071 43.2176 17.1763 43.7742C18.2031 43.9635 30.8147 44.008 32.0982 43.8299C34.3415 43.5293 36.1049 42.6275 37.7567 40.9465C38.9509 39.733 39.6987 38.4082 40.1897 36.6603C40.5469 35.4469 40.5134 26.8189 40.3795 26.2066Z" fill="#009EEF"/>
</svg>
